<?xml version="1.0" encoding="UTF-8" standalone="no"?>
<svg width="200px" height="200px" viewBox="0 0 200 200" version="1.1" xmlns="http://www.w3.org/2000/svg" xmlns:xlink="http://www.w3.org/1999/xlink" style="background: #FFFFFF;">
    <!-- Generator: Sketch 39.1 (31720) - http://www.bohemiancoding.com/sketch -->
    <title>email-verification-sent</title>
    <desc>Created with Sketch.</desc>
    <defs>
        <path d="M3.99261475,2.48228872e-14 C1.78755451,2.53115367e-14 0,1.79623222 0,4.00399917 L0,81.9960008 C0,84.2073485 1.78946078,86 3.99261475,86 L116.007385,86 C118.212445,86 120,84.2037678 120,81.9960008 L120,4.00399917 C120,1.79265149 118.210539,-4.88227062e-16 116.007385,0 L3.99261475,2.48228872e-14 Z" id="path-1"></path>
        <mask id="mask-2" maskContentUnits="userSpaceOnUse" maskUnits="objectBoundingBox" x="0" y="0" width="120" height="86" fill="white">
            <use xlink:href="#path-1"></use>
        </mask>
        <path d="M1,2.73376132 L3.68097528,0 L116.901221,0 L119,2.99718586 L63.5359083,58.4639231 C61.58308,60.4168444 58.4218925,60.4147713 56.4750385,58.4591321 L1,2.73376132 Z" id="path-3"></path>
        <mask id="mask-4" maskContentUnits="userSpaceOnUse" maskUnits="objectBoundingBox" x="0" y="0" width="118" height="59.9272389" fill="white">
            <use xlink:href="#path-3"></use>
        </mask>
        <circle id="path-5" cx="20" cy="20" r="20"></circle>
        <mask id="mask-6" maskContentUnits="userSpaceOnUse" maskUnits="objectBoundingBox" x="0" y="0" width="40" height="40" fill="white">
            <use xlink:href="#path-5"></use>
        </mask>
        <mask id="mask-7" maskContentUnits="userSpaceOnUse" maskUnits="objectBoundingBox" x="-6" y="-6" width="52" height="52">
            <rect x="-6" y="-6" width="52" height="52" fill="white"></rect>
            <use xlink:href="#path-5" fill="black"></use>
        </mask>
    </defs>
    <g id="assets" stroke="none" stroke-width="1" fill="none" fill-rule="evenodd">
        <g id="illustrations" transform="translate(-678.000000, -379.000000)"></g>
        <g id="email-verification-sent">
            <g id="Group-6" transform="translate(41.000000, 57.000000)">
                <g id="Group-22" stroke="#777777">
                    <g id="Group-21">
                        <g id="Group-3">
                            <use id="Combined-Shape" mask="url(#mask-2)" stroke-width="4" stroke-linecap="round" stroke-linejoin="round" fill="#FFFFFF" xlink:href="#path-1"></use>
                            <path d="M2.5,83.5 L118.5,2.5" id="Line" stroke-width="2" stroke-linecap="square" opacity="0.5"></path>
                            <path d="M2.5,83.5 L118.5,2.5" id="Line-Copy" stroke-width="2" stroke-linecap="square" opacity="0.5" transform="translate(60.500000, 43.000000) scale(-1, 1) translate(-60.500000, -43.000000) "></path>
                            <use id="Rectangle" mask="url(#mask-4)" stroke-width="4" fill="#FFFFFF" xlink:href="#path-3"></use>
                        </g>
                    </g>
                </g>
                <g id="Group-21" transform="translate(99.000000, 63.000000)">
                    <g id="Group-5">
                        <g id="Oval">
                            <use stroke="#00CC55" mask="url(#mask-6)" stroke-width="4" fill="#FFFFFF" fill-rule="evenodd" xlink:href="#path-5"></use>
                            <use stroke="#FFFFFF" mask="url(#mask-7)" stroke-width="12" xlink:href="#path-5"></use>
                        </g>
                    </g>
                </g>
                <polygon id="1" fill="#00CC55" points="118.37 90 120.11 90 120.11 75.7 118.49 75.7 115.17 78.1 115.17 79.72 118.37 77.42"></polygon>
            </g>
        </g>
    </g>
</svg>